<mxfile host="app.diagrams.net" agent="Mozilla/5.0 (Windows NT 10.0; Win64; x64) AppleWebKit/537.36 (KHTML, like Gecko) Chrome/131.0.0.0 Safari/537.36" version="26.0.6">
  <diagram name="Page-1" id="0ky0qZhClHFpXqdsp8LH">
    <mxGraphModel dx="1050" dy="557" grid="1" gridSize="10" guides="1" tooltips="1" connect="1" arrows="1" fold="1" page="1" pageScale="1" pageWidth="827" pageHeight="1169" math="0" shadow="0">
      <root>
        <mxCell id="0" />
        <mxCell id="1" parent="0" />
        <mxCell id="DrTHo8elzoulyBl3xp1w-7" value="" style="edgeStyle=orthogonalEdgeStyle;rounded=0;orthogonalLoop=1;jettySize=auto;html=1;" edge="1" parent="1" source="DrTHo8elzoulyBl3xp1w-2" target="DrTHo8elzoulyBl3xp1w-3">
          <mxGeometry relative="1" as="geometry" />
        </mxCell>
        <mxCell id="DrTHo8elzoulyBl3xp1w-2" value="INICIO" style="strokeWidth=2;html=1;shape=mxgraph.flowchart.start_1;whiteSpace=wrap;" vertex="1" parent="1">
          <mxGeometry x="364" y="20" width="100" height="60" as="geometry" />
        </mxCell>
        <mxCell id="DrTHo8elzoulyBl3xp1w-11" value="" style="edgeStyle=orthogonalEdgeStyle;rounded=0;orthogonalLoop=1;jettySize=auto;html=1;" edge="1" parent="1" source="DrTHo8elzoulyBl3xp1w-3" target="DrTHo8elzoulyBl3xp1w-6">
          <mxGeometry relative="1" as="geometry" />
        </mxCell>
        <mxCell id="DrTHo8elzoulyBl3xp1w-3" value="NOME" style="shape=parallelogram;html=1;strokeWidth=2;perimeter=parallelogramPerimeter;whiteSpace=wrap;rounded=1;arcSize=12;size=0.23;" vertex="1" parent="1">
          <mxGeometry x="364" y="120" width="100" height="60" as="geometry" />
        </mxCell>
        <mxCell id="DrTHo8elzoulyBl3xp1w-13" value="" style="edgeStyle=orthogonalEdgeStyle;rounded=0;orthogonalLoop=1;jettySize=auto;html=1;" edge="1" parent="1" source="DrTHo8elzoulyBl3xp1w-4" target="DrTHo8elzoulyBl3xp1w-5">
          <mxGeometry relative="1" as="geometry" />
        </mxCell>
        <mxCell id="DrTHo8elzoulyBl3xp1w-4" value="&lt;font style=&quot;font-size: 10px;&quot;&gt;TIPO&lt;/font&gt;&lt;div&gt;&lt;font style=&quot;font-size: 10px;&quot;&gt;SANGUINEO&lt;/font&gt;&lt;/div&gt;" style="shape=parallelogram;html=1;strokeWidth=2;perimeter=parallelogramPerimeter;whiteSpace=wrap;rounded=1;arcSize=12;size=0.23;" vertex="1" parent="1">
          <mxGeometry x="364" y="320" width="100" height="60" as="geometry" />
        </mxCell>
        <mxCell id="DrTHo8elzoulyBl3xp1w-16" value="" style="edgeStyle=orthogonalEdgeStyle;rounded=0;orthogonalLoop=1;jettySize=auto;html=1;" edge="1" parent="1" source="DrTHo8elzoulyBl3xp1w-5" target="DrTHo8elzoulyBl3xp1w-14">
          <mxGeometry relative="1" as="geometry" />
        </mxCell>
        <mxCell id="DrTHo8elzoulyBl3xp1w-5" value="RENDA&amp;nbsp;&lt;div&gt;MENSAL&lt;/div&gt;" style="shape=parallelogram;html=1;strokeWidth=2;perimeter=parallelogramPerimeter;whiteSpace=wrap;rounded=1;arcSize=12;size=0.23;" vertex="1" parent="1">
          <mxGeometry x="364" y="420" width="100" height="60" as="geometry" />
        </mxCell>
        <mxCell id="DrTHo8elzoulyBl3xp1w-12" value="" style="edgeStyle=orthogonalEdgeStyle;rounded=0;orthogonalLoop=1;jettySize=auto;html=1;" edge="1" parent="1" source="DrTHo8elzoulyBl3xp1w-6" target="DrTHo8elzoulyBl3xp1w-4">
          <mxGeometry relative="1" as="geometry" />
        </mxCell>
        <mxCell id="DrTHo8elzoulyBl3xp1w-6" value="&lt;font style=&quot;font-size: 10px;&quot;&gt;ANO&amp;nbsp;&lt;/font&gt;&lt;div&gt;&lt;font style=&quot;font-size: 10px;&quot;&gt;NASCIMENTO&lt;/font&gt;&lt;/div&gt;" style="shape=parallelogram;html=1;strokeWidth=2;perimeter=parallelogramPerimeter;whiteSpace=wrap;rounded=1;arcSize=12;size=0.23;" vertex="1" parent="1">
          <mxGeometry x="364" y="220" width="100" height="60" as="geometry" />
        </mxCell>
        <mxCell id="DrTHo8elzoulyBl3xp1w-18" value="" style="edgeStyle=orthogonalEdgeStyle;rounded=0;orthogonalLoop=1;jettySize=auto;html=1;" edge="1" parent="1" source="DrTHo8elzoulyBl3xp1w-14" target="DrTHo8elzoulyBl3xp1w-17">
          <mxGeometry relative="1" as="geometry" />
        </mxCell>
        <mxCell id="DrTHo8elzoulyBl3xp1w-14" value="&lt;font style=&quot;font-size: 9px;&quot;&gt;NOME&lt;br&gt;ANO NASCIMENTO TIPO SANGUINEO RENDA MENSAL&lt;/font&gt;" style="strokeWidth=2;html=1;shape=mxgraph.flowchart.display;whiteSpace=wrap;" vertex="1" parent="1">
          <mxGeometry x="352" y="520" width="124" height="70" as="geometry" />
        </mxCell>
        <mxCell id="DrTHo8elzoulyBl3xp1w-17" value="FIM" style="strokeWidth=2;html=1;shape=mxgraph.flowchart.start_1;whiteSpace=wrap;" vertex="1" parent="1">
          <mxGeometry x="364" y="630" width="100" height="60" as="geometry" />
        </mxCell>
      </root>
    </mxGraphModel>
  </diagram>
</mxfile>
